P2
#imagem.pgm
100 100
255
120 52 128 32 136 150 14 11 217 99 88 102 90 78 91 244 232 25 92 128 255 227 120 25 51 163 204 159 214 158 4 79 210 132 111 90 26 125 101 244 225 189 90 59 12 181 47 244 206 139 116 205 111 236 230 162 143 179 65 102 81 69 181 35 201 36 125 228 162 226 216 131 159 50 190 171 231 238 159 182 121 19 131 232 0 106 138 143 29 204 245 110 17 170 145 219 207 14 191 113 
240 151 244 143 201 178 59 176 160 218 102 26 238 234 2 238 84 141 125 113 89 115 223 106 29 112 69 236 126 4 93 110 155 81 253 100 4 56 21 164 19 123 190 1 101 193 239 185 78 108 42 167 223 9 17 253 121 87 233 247 91 71 101 247 152 99 91 156 155 112 65 174 236 255 175 81 192 158 11 14 11 53 181 234 63 199 231 184 30 209 176 121 24 21 112 176 120 204 77 20 
60 142 194 40 141 114 122 78 16 133 92 27 186 18 6 249 217 237 178 247 190 98 112 214 119 225 135 240 173 212 4 233 98 198 18 239 56 140 61 73 17 154 100 203 172 106 197 133 88 119 124 22 217 236 237 80 205 116 64 122 72 68 100 170 11 118 153 67 2 215 140 19 113 241 222 29 91 163 162 179 26 30 202 243 10 183 68 216 43 132 82 115 201 182 29 212 44 182 23 46 
141 164 65 254 149 32 27 240 195 189 164 222 219 110 209 230 37 21 190 80 154 16 195 99 199 224 55 243 150 78 34 36 242 99 34 135 131 62 120 71 251 28 37 215 138 246 189 175 12 123 255 166 139 194 9 82 162 64 70 56 142 104 92 129 203 127 8 79 189 128 150 184 156 187 143 38 177 76 213 189 199 212 99 83 150 108 165 56 172 235 113 59 83 205 188 31 76 196 110 9 
69 4 194 225 191 81 8 112 158 221 46 101 178 145 184 72 254 94 129 170 73 242 229 157 191 161 188 12 102 42 21 171 46 215 140 237 41 148 93 199 114 139 44 36 29 229 108 27 67 237 197 140 223 171 41 159 76 229 171 178 15 192 93 61 152 234 42 193 126 136 136 240 19 180 20 48 153 129 75 220 110 17 105 78 188 146 237 8 120 152 187 135 88 24 197 240 2 239 177 129 
119 57 113 139 238 134 187 135 7 7 100 117 24 205 195 212 95 176 220 215 72 151 95 161 176 36 145 178 19 67 51 139 124 165 22 106 43 209 242 50 216 86 167 240 35 107 196 130 27 161 90 100 56 185 5 232 221 150 155 240 217 206 123 86 115 145 192 158 99 178 208 59 8 120 44 43 227 240 174 254 145 8 98 202 193 103 178 158 254 77 142 215 28 10 45 143 155 238 46 254 
160 254 58 169 118 102 212 89 86 130 88 232 138 186 178 75 34 100 233 32 178 120 247 206 130 37 93 29 19 139 28 179 138 86 92 0 188 49 90 18 179 178 250 62 108 172 137 142 17 115 174 195 235 166 145 109 203 238 138 222 122 166 145 4 252 238 4 184 31 94 203 210 16 197 16 125 114 154 11 131 13 186 70 248 96 215 101 43 197 239 9 63 150 154 67 146 136 72 75 167 
166 22 122 183 219 138 52 77 36 63 208 49 249 22 41 89 237 142 132 179 126 141 242 20 40 54 166 176 126 241 88 36 7 210 219 227 92 15 48 129 79 1 178 72 23 220 162 5 106 38 184 232 180 170 252 220 224 163 140 94 148 228 131 156 182 94 127 19 110 175 148 189 176 70 5 200 34 167 205 141 206 133 117 130 47 114 94 16 21 234 110 169 207 241 69 133 80 196 152 190 
116 44 123 36 115 128 236 149 40 185 34 246 62 152 120 110 10 214 126 31 192 236 200 143 222 14 21 46 210 173 236 70 218 103 107 77 231 87 226 15 17 5 5 79 157 125 189 167 83 59 198 20 40 142 163 6 156 184 52 111 102 32 181 64 135 32 141 110 120 111 126 137 116 131 216 17 1 150 184 84 209 126 104 249 13 12 255 169 196 51 24 42 83 206 106 218 238 247 73 102 
103 199 239 219 74 200 237 75 94 165 160 47 36 8 41 49 20 40 218 217 92 243 3 175 193 110 138 175 101 211 22 204 154 5 168 228 205 149 48 43 58 208 91 94 216 132 143 237 172 106 198 8 93 201 184 30 55 66 205 157 21 227 105 175 233 17 147 182 166 195 226 225 147 61 63 108 193 207 89 109 57 31 118 150 232 46 180 32 112 129 189 133 101 38 52 78 56 199 4 222 
139 230 191 30 35 255 138 228 206 227 82 7 2 200 157 235 246 81 11 102 210 200 235 55 238 31 133 38 230 138 5 113 112 196 144 148 195 26 120 145 254 202 152 0 146 53 235 136 134 246 238 89 190 217 144 173 248 22 211 223 160 216 80 16 157 224 164 96 251 29 242 249 231 138 249 122 192 229 2 70 219 241 159 154 202 48 71 195 70 26 162 230 243 242 246 144 211 155 240 206 
184 226 199 159 109 192 25 45 165 28 115 129 13 19 27 215 67 98 154 137 124 60 111 111 47 101 255 2 0 240 208 184 210 151 88 63 87 113 108 253 141 224 126 154 243 153 114 54 251 12 191 119 73 46 231 120 147 230 122 148 214 74 76 169 225 164 232 56 22 85 53 163 53 179 62 40 76 176 94 71 188 29 191 5 75 166 125 222 140 247 114 99 65 191 12 34 99 244 91 121 
73 144 29 126 68 91 166 144 11 4 216 199 33 151 205 108 61 74 75 201 66 189 44 131 124 56 166 224 45 1 89 118 145 118 245 213 209 155 102 220 160 62 164 193 213 113 46 18 187 121 219 253 54 8 129 179 64 39 147 109 40 236 228 185 99 217 143 52 116 245 17 20 51 181 214 8 38 4 26 225 125 245 223 179 253 96 102 62 135 249 171 175 230 143 104 73 104 247 125 221 
236 142 241 31 67 199 39 105 203 65 75 72 55 42 252 52 138 98 114 17 92 30 192 66 173 40 139 22 32 8 243 12 151 228 44 218 172 83 68 119 149 143 192 204 185 188 0 67 30 115 84 122 145 20 188 62 60 71 84 92 80 71 105 231 44 149 193 216 232 5 79 125 148 15 73 77 203 74 144 234 189 228 100 78 248 33 140 53 104 225 145 184 40 250 159 84 143 97 44 120 
102 124 245 251 139 63 72 87 137 217 65 70 189 165 148 182 198 32 235 47 1 124 231 42 119 135 126 6 232 171 126 78 39 116 73 178 179 146 9 60 107 74 130 40 240 22 222 182 54 201 229 56 70 205 98 189 84 224 195 60 139 66 138 178 182 212 101 105 102 110 165 209 185 39 249 169 61 216 95 115 161 69 171 231 18 13 164 102 238 104 162 121 170 44 44 96 0 145 201 102 
255 110 55 184 149 49 97 210 9 193 69 170 6 241 146 24 254 54 126 236 158 32 102 72 76 146 168 77 35 113 179 34 223 235 219 116 28 60 70 37 253 140 207 3 125 97 27 123 152 153 104 54 185 206 127 6 96 39 83 131 153 6 165 120 241 128 237 13 189 51 50 186 191 2 190 60 99 217 184 251 115 32 50 44 238 177 50 78 216 133 209 113 140 118 234 125 247 215 139 180 
10 189 110 202 191 44 6 35 6 190 30 121 222 80 165 204 1 216 26 218 93 235 75 233 98 53 103 89 12 242 13 23 175 123 225 111 168 231 146 174 166 176 39 132 1 204 81 2 164 107 220 2 87 40 235 185 93 82 18 106 68 31 129 244 154 98 99 66 73 245 240 239 165 23 116 166 228 197 169 136 48 133 138 135 173 118 64 11 200 82 117 13 113 246 1 12 88 100 78 161 
89 63 145 254 86 5 165 58 202 78 195 250 211 77 130 129 195 194 140 140 21 1 153 134 247 154 146 79 254 225 240 87 32 129 85 118 134 250 177 80 72 116 75 28 193 205 157 133 143 41 17 164 42 170 43 33 68 189 112 66 158 96 153 190 226 238 53 104 233 230 185 49 90 4 77 27 209 234 160 96 19 177 5 61 91 48 94 159 237 206 225 140 47 122 74 17 105 127 121 82 
101 50 131 191 54 209 219 7 187 123 104 207 45 109 12 136 157 107 40 138 57 9 22 104 132 97 121 237 224 243 63 70 37 194 5 92 147 224 99 79 92 203 30 137 56 42 17 213 149 57 96 207 67 118 55 199 215 177 180 184 164 243 254 201 181 3 37 73 228 137 152 64 84 182 201 141 224 218 98 118 20 194 69 87 57 124 30 16 45 210 200 209 197 198 155 122 202 192 195 174 
73 91 238 158 17 183 43 242 145 141 104 165 80 173 252 137 41 26 153 87 236 98 40 177 40 195 44 242 132 239 160 205 75 142 107 92 69 150 78 215 36 182 124 116 99 121 253 141 147 150 228 128 248 12 49 33 208 93 19 84 77 180 33 152 66 141 244 136 35 67 95 71 249 219 187 93 84 184 234 232 79 206 104 71 218 153 104 170 247 124 254 68 48 32 220 114 173 208 250 208 
19 89 24 13 53 211 106 137 140 84 113 219 34 217 34 252 115 139 167 106 7 165 174 55 197 138 169 114 90 164 67 110 253 91 123 50 46 229 188 186 57 45 149 91 7 184 87 122 67 254 228 74 164 146 129 105 28 42 220 118 206 31 228 204 122 95 254 168 68 186 99 125 232 248 216 239 176 48 105 243 46 77 61 210 223 190 60 251 233 24 113 183 55 86 131 177 181 130 89 250 
60 188 119 36 181 80 19 101 128 124 89 174 201 150 129 168 85 189 163 62 213 21 245 12 107 121 189 32 251 22 26 55 211 146 92 136 226 111 237 98 236 70 16 181 221 145 94 50 78 1 112 35 22 101 47 129 222 236 162 217 3 188 17 214 78 109 94 48 220 75 146 200 146 163 126 111 52 220 161 131 221 17 166 244 118 214 117 85 194 23 46 197 212 63 155 34 172 249 83 137 
69 229 81 215 136 207 70 189 171 231 64 137 248 230 125 110 188 242 195 127 10 242 68 222 49 224 0 222 217 83 103 30 57 184 245 193 136 59 126 51 34 190 188 26 165 57 137 97 44 76 224 54 62 37 20 112 5 20 78 222 104 181 253 161 109 242 98 245 46 225 41 80 159 229 107 68 31 244 166 75 64 134 129 127 171 149 239 176 169 61 143 17 242 140 178 95 126 21 85 172 
246 126 253 149 99 104 218 130 92 128 205 156 6 78 27 178 227 10 98 141 71 241 158 57 125 81 153 252 102 238 168 92 108 165 241 207 13 203 82 105 75 31 6 82 110 33 4 81 44 102 222 115 88 125 173 213 206 70 209 52 52 122 144 160 31 129 111 45 77 193 150 152 225 156 234 79 190 238 160 234 85 127 93 173 252 10 130 202 80 84 254 132 206 142 36 237 15 148 26 92 
85 177 245 54 77 223 133 11 206 38 245 35 165 83 208 161 93 82 107 174 166 105 50 116 247 87 98 6 235 124 99 64 45 88 119 123 55 252 134 5 34 124 40 199 207 248 104 44 75 211 218 241 60 13 102 51 100 200 58 79 68 157 143 114 245 6 237 44 3 115 50 37 239 90 237 190 83 85 235 158 41 197 143 101 210 245 153 54 189 211 133 2 112 21 116 101 27 97 145 30 
212 195 68 196 30 49 130 113 134 109 15 175 51 158 21 5 148 174 60 81 129 193 83 241 214 199 86 242 40 231 16 253 171 84 193 201 133 67 58 12 177 73 187 228 231 208 233 123 126 37 205 255 231 32 240 189 232 70 175 16 46 192 13 217 20 206 162 154 18 220 166 195 37 97 167 12 50 144 136 176 182 85 176 157 117 160 90 93 231 10 110 21 202 123 238 222 74 144 120 92 
108 30 31 145 128 198 157 178 86 37 98 12 122 18 169 240 179 4 77 154 14 187 175 216 55 157 182 129 45 47 221 153 77 252 42 205 194 199 127 24 237 226 37 103 244 206 87 167 210 165 65 224 96 240 184 151 141 111 24 186 158 245 83 235 241 125 185 179 69 56 204 50 26 241 153 15 191 241 182 146 150 248 114 246 232 43 142 118 154 166 48 56 156 132 35 141 1 220 65 70 
21 13 120 47 254 18 62 189 3 245 79 153 237 194 143 213 237 29 75 135 196 124 191 96 0 226 237 1 191 46 72 212 59 192 3 57 210 66 247 213 55 70 110 36 8 254 249 245 27 69 124 223 193 59 63 193 30 45 194 221 91 10 177 151 203 180 208 157 246 199 115 45 14 225 81 22 223 75 12 251 144 136 218 81 196 26 18 226 71 212 191 162 223 112 57 170 36 10 71 27 
209 186 72 223 156 154 246 123 229 2 118 117 138 81 198 78 107 216 48 178 172 239 84 139 95 142 53 132 152 125 159 105 55 231 73 211 129 63 79 102 65 197 219 203 22 161 26 129 121 74 51 38 58 136 177 153 22 231 29 174 100 188 23 155 164 96 111 37 159 190 140 224 131 103 172 154 9 198 27 130 16 79 168 74 215 90 228 237 65 1 155 165 190 178 64 98 19 175 135 178 
109 19 147 241 123 63 139 132 5 166 6 21 245 175 96 204 9 68 185 74 69 84 239 3 7 47 101 26 223 237 204 76 0 95 61 123 158 200 255 163 111 6 185 100 181 25 49 190 93 234 8 162 63 247 166 70 38 11 96 5 248 44 82 249 140 143 116 42 88 116 206 199 122 135 43 47 160 92 237 253 71 245 159 134 236 69 204 18 81 44 24 73 88 106 66 228 249 183 15 81 
43 221 24 165 100 68 212 4 160 193 1 231 182 160 109 162 230 57 180 55 101 204 128 190 54 195 162 48 122 177 129 165 142 154 74 242 222 30 246 126 223 247 102 149 152 211 55 126 13 235 181 114 184 53 48 238 248 211 30 114 132 160 23 19 58 97 5 24 127 252 150 94 243 252 243 139 208 42 9 221 22 190 79 206 244 128 188 236 83 219 95 215 123 118 234 181 216 240 205 87 
236 99 182 223 96 169 107 48 212 116 13 234 51 92 184 39 220 116 19 47 79 114 7 202 233 241 127 193 225 76 24 205 176 206 173 16 120 24 64 76 140 77 54 191 169 238 230 134 98 250 181 178 108 188 124 85 174 252 22 143 72 47 93 248 253 10 8 117 34 72 193 174 149 247 110 63 229 84 197 72 78 122 250 187 55 118 16 229 114 39 116 187 86 209 179 83 219 188 201 253 
4 138 172 154 130 26 217 103 110 158 175 189 24 169 120 79 32 136 52 146 175 169 77 5 122 1 89 86 189 34 83 193 172 255 91 46 25 52 150 136 210 69 69 235 239 189 58 15 69 111 161 245 24 239 250 146 240 83 232 173 117 60 110 34 59 202 80 85 254 230 221 209 44 34 188 27 223 246 42 36 101 203 25 125 186 20 16 170 103 248 87 221 52 198 255 112 144 79 197 142 
54 162 95 98 196 27 125 163 18 167 199 119 114 225 245 45 245 5 215 92 253 47 57 50 245 56 162 133 136 103 19 190 9 115 32 205 142 157 112 160 68 55 24 182 24 13 227 13 18 187 106 15 234 163 65 223 220 227 100 100 74 119 34 83 234 66 32 121 223 144 25 35 200 49 217 224 62 189 238 80 120 88 96 98 251 161 65 215 133 165 59 207 28 93 35 7 159 67 128 126 
212 153 161 156 203 123 124 9 56 106 90 176 194 186 18 190 91 83 149 224 248 209 176 20 46 211 27 206 22 155 76 234 53 238 134 0 105 3 9 161 109 99 81 48 29 99 238 121 182 131 89 174 84 9 194 131 220 222 81 243 121 157 221 174 139 100 174 244 103 184 149 212 27 230 4 57 73 242 178 255 118 11 173 202 21 112 77 241 78 158 228 199 60 194 118 199 38 36 188 141 
220 81 97 248 56 102 49 129 88 227 129 206 238 46 153 3 158 230 245 236 133 217 180 193 155 42 136 193 78 68 78 43 150 176 35 206 22 84 79 110 55 208 61 37 255 214 41 157 188 30 138 65 247 62 2 147 104 139 84 182 207 163 225 101 83 4 51 105 88 131 215 143 83 20 181 82 234 222 240 167 252 122 232 243 184 235 134 32 118 219 214 69 126 184 171 209 188 222 58 21 
97 17 164 181 38 89 7 16 55 247 183 51 113 160 39 41 139 173 73 1 136 32 70 6 216 241 215 148 208 17 169 49 35 78 230 73 167 238 89 223 229 17 18 87 177 57 128 60 231 202 61 111 234 131 118 194 117 77 86 69 95 0 118 130 78 93 203 245 75 36 212 48 53 231 135 230 32 8 34 7 210 95 119 188 227 237 126 88 58 212 157 153 212 19 27 34 112 230 24 187 
11 236 236 64 211 115 39 244 123 73 251 77 169 114 9 140 95 135 228 154 92 129 51 48 148 79 83 5 53 107 192 64 87 172 129 43 32 168 31 155 241 26 233 154 141 242 38 236 122 10 134 214 139 186 6 32 9 89 37 62 196 229 127 28 146 0 71 178 168 102 77 153 128 54 52 13 41 90 250 163 101 128 121 240 58 127 16 67 217 53 130 157 27 1 185 173 1 0 95 169 
102 172 66 231 227 118 244 12 209 238 175 54 111 40 38 169 167 55 237 128 108 111 30 135 112 215 52 113 216 147 26 62 64 92 37 35 211 26 47 164 8 222 218 119 6 0 33 173 55 14 46 164 125 76 43 237 35 96 94 251 243 120 58 51 212 95 86 167 121 133 75 130 99 37 249 105 38 26 23 93 40 69 1 165 145 45 146 180 141 240 176 128 104 234 180 61 73 10 228 195 
144 48 69 243 85 62 93 123 89 116 217 129 185 218 39 74 7 185 254 148 170 174 21 18 152 201 79 226 211 52 165 99 100 234 87 185 40 180 53 129 40 14 3 225 232 42 43 240 227 41 132 141 216 153 160 112 98 239 82 54 35 247 153 135 225 240 65 10 164 118 139 204 132 142 173 108 184 216 92 156 2 225 41 218 122 201 74 221 185 157 19 220 148 172 100 118 157 165 128 65 
27 11 14 159 154 187 11 82 148 104 238 150 73 24 112 195 225 186 160 154 87 179 119 236 96 219 98 253 128 226 62 155 237 76 58 135 8 69 218 156 173 200 50 246 224 162 186 194 92 90 92 180 14 211 160 110 174 2 107 46 228 169 201 209 246 3 89 254 73 51 154 246 251 204 237 220 110 167 158 202 1 250 126 15 206 30 125 124 32 232 171 4 146 116 214 136 120 47 134 193 
98 32 183 93 236 164 57 90 75 215 36 77 210 163 92 160 193 218 28 226 194 199 230 84 60 188 220 180 235 98 117 77 130 44 171 110 209 228 200 28 188 237 105 142 144 198 46 81 160 74 51 98 18 26 183 78 214 147 2 194 246 119 15 120 163 186 231 116 159 175 145 91 156 250 233 44 192 23 126 96 97 177 195 115 203 122 193 162 13 195 100 3 58 115 124 222 46 99 82 205 
18 227 40 175 222 17 219 158 40 89 255 137 11 194 253 214 60 190 120 73 130 220 77 188 80 201 154 126 44 237 75 62 208 115 237 174 132 201 77 172 34 76 53 45 14 50 4 74 241 124 147 115 89 224 47 169 169 202 39 213 183 114 20 135 229 1 54 105 202 131 21 237 207 74 26 221 125 30 39 110 155 186 225 244 155 16 157 68 218 196 26 145 54 46 25 27 47 79 132 250 
210 153 231 161 227 1 126 96 32 165 206 187 95 175 175 250 192 76 63 154 16 89 44 70 135 69 97 182 148 229 176 102 126 151 7 97 153 133 194 185 42 144 116 137 64 35 132 0 111 195 154 127 28 198 197 163 11 38 89 159 11 10 5 137 161 12 234 58 145 172 243 187 61 103 69 125 138 201 125 249 140 23 120 168 222 61 75 233 99 164 137 110 174 142 247 80 155 226 138 44 
142 126 232 203 229 45 72 112 246 197 105 130 221 226 42 187 31 117 164 131 25 45 241 200 188 233 24 87 203 162 131 89 32 107 37 6 152 109 118 142 51 223 16 16 193 58 203 225 175 111 100 201 157 85 145 89 62 169 176 9 75 51 99 108 159 136 114 55 245 232 198 40 199 214 56 137 17 3 106 192 115 206 137 16 35 26 105 98 195 25 107 15 76 206 123 235 86 237 35 76 
213 233 116 156 191 173 37 208 176 143 145 35 93 26 51 129 53 156 227 248 181 78 7 2 29 130 237 115 111 16 191 68 249 52 225 185 225 6 137 145 150 26 181 243 53 232 116 106 133 87 98 58 166 106 60 195 236 42 54 92 58 246 160 52 42 129 237 11 136 118 156 30 145 81 17 198 58 134 48 191 221 146 249 131 252 54 70 233 96 125 69 154 115 229 206 157 103 187 168 239 
50 68 13 195 150 30 137 208 164 185 143 130 75 136 5 72 190 76 49 30 201 118 185 60 91 135 217 194 67 129 177 117 197 190 56 91 221 193 43 129 122 186 3 197 67 9 13 1 85 62 32 30 180 217 90 16 96 51 210 163 180 132 24 121 66 80 213 31 17 0 161 139 187 164 81 254 173 94 255 2 157 31 32 81 248 122 97 89 173 52 252 97 184 21 219 250 101 176 26 119 
176 187 2 107 95 83 105 13 178 105 15 79 136 48 160 129 170 2 218 88 54 214 185 238 235 148 232 81 68 2 200 245 189 202 96 29 30 202 42 208 51 57 31 187 105 191 60 20 193 22 108 247 237 37 229 216 186 206 41 254 208 241 243 142 188 84 171 218 30 213 170 81 14 201 12 120 136 73 140 74 95 248 65 76 29 39 37 215 245 78 214 197 64 201 83 252 29 254 214 59 
211 128 140 226 73 153 90 209 226 230 27 65 222 93 142 251 132 179 211 121 1 169 62 65 114 146 61 144 144 19 203 100 147 88 70 220 241 160 174 211 134 201 20 100 38 162 95 170 85 50 35 87 219 98 152 78 244 214 222 132 233 169 232 125 1 46 89 242 206 7 197 84 209 218 184 247 124 24 162 210 74 197 41 38 39 193 116 27 151 82 160 129 251 136 254 253 183 87 239 133 
95 181 218 48 143 146 39 11 170 201 221 245 143 6 27 182 200 143 210 95 225 114 224 220 250 222 217 177 54 201 55 149 126 17 197 13 163 236 24 78 182 246 67 69 252 94 251 196 237 205 36 206 63 4 170 58 227 132 235 25 77 34 174 203 51 115 216 215 95 240 37 21 230 104 90 227 198 86 167 179 35 203 129 99 208 43 157 179 175 136 204 252 171 122 199 222 237 159 181 76 
144 218 98 118 66 188 89 8 18 1 187 54 204 60 153 156 104 54 79 23 190 27 20 105 149 219 72 130 123 253 207 11 216 49 129 26 237 219 35 0 220 222 54 168 27 207 69 131 5 148 154 195 176 174 45 69 138 117 200 5 114 151 16 74 200 145 101 181 108 136 181 72 102 235 241 129 186 54 4 191 202 159 131 122 77 176 192 215 37 136 220 151 31 236 226 231 126 71 156 234 
207 82 51 53 61 36 183 248 90 187 183 36 90 58 159 168 234 95 127 15 231 92 167 6 72 137 237 198 208 137 177 159 219 228 212 25 8 139 17 98 71 200 134 161 3 37 73 237 132 201 253 107 37 164 113 109 45 94 52 253 232 229 156 195 201 112 220 209 252 237 51 67 182 185 228 185 223 46 166 99 247 163 207 28 71 64 137 116 159 189 113 135 162 13 74 107 126 39 60 122 
20 111 189 202 41 161 131 8 207 42 107 198 205 58 226 21 123 108 137 26 41 251 161 204 8 235 55 134 18 116 0 39 227 189 241 12 95 117 20 46 159 128 245 108 186 215 129 53 67 11 79 109 6 240 57 14 220 112 149 238 228 149 21 200 83 7 212 178 124 233 224 27 105 213 135 35 173 9 89 240 20 168 93 26 153 150 40 117 7 189 99 235 83 121 179 166 128 136 88 252 
113 56 23 218 14 158 253 187 167 86 171 187 255 9 213 152 159 254 13 166 187 112 146 14 233 69 180 105 205 12 101 62 69 124 24 83 27 22 14 194 108 185 126 107 194 83 3 98 81 16 8 13 129 154 27 106 224 208 212 173 220 57 236 33 182 4 116 209 26 130 147 135 60 17 242 254 101 246 96 182 6 105 195 135 3 223 242 227 175 198 145 139 255 125 173 181 129 33 134 156 
164 26 35 224 43 21 222 144 11 63 71 18 168 10 153 171 233 139 143 152 81 32 36 81 157 209 6 30 242 141 186 150 167 221 118 210 243 85 99 254 148 170 16 60 180 170 231 158 53 118 54 135 150 90 216 51 43 222 82 30 107 12 180 18 234 43 229 221 128 72 219 20 242 236 80 166 150 55 68 203 174 123 82 68 213 42 120 1 9 202 31 116 214 211 135 192 254 108 157 126 
180 121 146 166 101 226 76 251 26 145 198 200 12 25 12 225 67 132 226 76 78 1 193 37 213 72 229 211 180 131 82 104 252 228 14 97 199 90 92 225 235 34 169 247 59 181 217 127 58 187 203 136 189 140 173 146 212 147 101 136 22 183 240 18 156 254 115 99 89 207 68 68 241 237 60 45 162 21 172 220 208 119 101 141 4 18 31 216 165 133 97 187 60 81 205 216 80 64 59 169 
15 127 237 1 108 41 46 15 62 218 235 15 81 80 156 85 99 188 46 8 65 143 196 125 224 145 86 48 210 145 217 225 17 199 226 125 240 16 140 47 234 120 62 60 200 218 145 43 150 191 52 215 78 248 85 47 137 171 95 91 60 57 61 77 0 31 203 240 48 87 31 26 207 93 86 152 56 232 195 206 167 247 166 246 239 251 37 121 166 132 212 226 189 17 48 189 49 251 174 97 
82 205 123 34 43 210 186 99 186 125 49 97 117 215 87 100 210 124 221 120 1 178 91 190 195 139 124 244 134 42 85 216 247 209 250 34 163 180 133 93 50 183 190 167 142 22 11 97 146 233 217 147 155 52 82 94 191 206 83 69 248 168 30 239 121 24 18 28 205 151 121 255 78 56 166 221 78 177 62 224 154 23 116 53 76 198 148 11 148 231 81 140 143 111 123 9 135 141 37 84 
37 159 83 115 215 249 80 37 171 142 5 69 166 121 123 242 63 15 253 211 246 78 95 133 189 219 142 69 104 180 153 141 83 237 1 42 230 81 79 145 224 84 215 134 206 82 120 13 97 117 225 87 196 64 220 129 27 107 198 132 31 96 17 114 77 18 156 51 100 235 197 68 63 156 202 13 238 66 27 79 183 252 166 123 60 130 253 88 237 195 220 12 35 237 126 112 0 26 164 100 
5 105 168 69 5 114 82 243 180 109 66 107 105 232 231 166 106 228 254 88 167 218 100 203 199 227 59 199 253 223 43 3 72 211 72 77 69 154 64 249 8 130 101 113 106 76 23 213 48 21 45 215 239 145 162 183 116 222 126 114 189 170 117 6 125 189 83 195 87 148 188 95 22 33 209 129 109 232 86 157 254 131 117 237 20 23 164 137 245 35 251 179 205 112 185 74 45 12 13 132 
160 202 228 183 235 181 56 89 157 142 246 155 17 107 137 37 131 45 174 120 80 169 43 29 25 228 104 70 241 117 203 145 63 175 72 43 100 128 132 1 14 122 157 31 230 38 69 105 83 243 225 164 157 13 193 182 241 41 253 226 159 200 116 222 119 188 9 219 61 141 220 75 8 121 107 238 159 176 87 243 163 56 151 64 69 88 247 55 130 244 25 33 188 141 255 51 74 9 14 135 
150 234 210 158 100 61 140 3 237 227 246 145 28 141 209 97 230 200 152 104 188 178 137 120 63 136 171 137 145 185 16 40 164 227 198 8 32 83 11 14 54 2 159 82 143 112 180 117 57 76 221 245 254 102 110 62 239 25 199 128 211 216 168 119 187 111 127 219 194 138 233 248 140 136 75 28 249 255 145 50 75 111 39 74 213 149 136 196 175 79 69 130 39 237 249 226 92 120 190 30 
2 167 23 143 48 98 171 41 97 60 91 172 171 130 246 129 24 126 69 199 206 138 73 245 120 66 216 212 186 150 243 188 61 10 75 109 108 246 150 205 51 241 121 222 116 112 95 140 238 165 83 188 47 156 178 167 222 138 124 152 32 111 84 93 121 160 203 229 150 97 178 201 83 43 168 199 155 7 83 138 172 166 70 220 66 248 131 32 130 255 184 162 110 12 0 231 172 203 204 67 
44 126 12 127 170 180 70 69 188 153 207 104 63 22 68 129 14 200 161 145 199 89 51 54 102 51 29 18 254 234 85 43 104 98 170 18 22 241 88 210 138 39 59 202 61 127 75 76 71 237 221 15 70 16 69 172 68 98 191 66 76 20 109 181 118 24 199 141 9 31 95 147 71 154 93 132 26 169 208 97 150 173 112 220 190 181 137 2 24 72 68 100 92 178 25 211 202 225 96 211 
0 191 102 71 90 196 204 116 109 156 213 3 74 70 223 8 251 104 10 19 176 78 120 13 0 145 224 202 114 64 157 115 255 4 186 89 200 134 205 53 35 163 56 109 233 23 117 228 128 127 248 48 205 112 61 206 1 29 152 116 93 54 231 93 58 161 182 2 40 132 55 75 39 111 184 16 134 45 244 6 172 236 55 121 92 116 71 94 146 224 210 239 22 185 76 80 90 3 82 130 
135 137 205 174 248 133 190 126 178 178 133 94 159 188 216 251 48 31 89 194 255 43 178 21 228 254 101 63 1 183 193 136 64 143 54 56 20 244 183 199 167 60 37 70 248 253 65 40 29 155 235 28 198 157 50 171 155 151 234 157 79 171 37 143 58 92 200 79 80 127 22 247 187 59 61 179 57 127 219 86 26 198 114 224 99 164 139 255 60 117 156 139 33 193 26 91 29 226 170 110 
97 192 101 28 252 163 207 53 34 171 139 60 113 253 28 213 162 168 212 222 29 112 105 62 49 131 154 79 102 68 189 199 5 34 228 1 197 179 54 231 94 193 35 208 190 64 165 96 232 121 62 5 233 167 68 26 43 222 105 145 34 38 88 39 73 60 40 14 240 94 246 78 31 25 30 222 89 195 62 65 60 125 71 37 36 139 64 79 105 169 224 139 208 57 179 25 117 219 39 101 
58 29 180 89 55 210 55 144 150 118 210 210 243 25 248 23 164 56 103 13 225 71 152 177 128 75 202 246 39 242 91 97 15 15 186 70 226 242 215 120 104 169 74 91 194 66 114 102 122 217 115 92 33 11 13 161 87 216 151 126 202 243 223 217 2 153 32 228 139 247 92 243 160 167 78 98 233 193 200 100 154 59 192 187 70 205 93 157 165 244 27 111 231 250 73 234 148 105 206 31 
96 43 19 0 210 97 98 187 34 42 31 189 101 223 120 171 173 213 73 82 202 100 194 177 95 11 155 243 116 106 18 212 149 37 212 103 135 54 34 169 96 66 102 197 33 223 112 206 180 185 33 126 30 227 48 125 238 203 112 98 53 130 54 202 168 10 49 47 64 84 216 160 150 63 101 183 30 213 134 210 143 167 81 173 138 129 42 120 76 154 218 130 28 16 76 196 26 126 243 90 
210 204 250 104 11 95 31 41 52 165 251 195 76 76 112 214 205 154 78 26 52 40 156 81 56 232 21 82 102 9 172 56 213 166 160 224 5 192 9 58 101 4 253 178 81 110 136 30 8 215 56 61 255 212 142 56 189 163 138 35 172 55 92 129 221 252 97 227 188 106 29 34 111 26 212 192 136 92 222 145 51 23 206 51 235 92 107 168 255 245 204 172 44 40 45 10 36 143 237 225 
249 10 3 104 36 215 40 173 51 7 62 103 30 12 154 9 104 5 178 103 250 126 19 39 166 65 49 202 208 30 171 201 40 174 50 76 133 90 249 185 97 55 32 127 67 186 137 171 191 59 19 185 185 38 224 95 103 17 41 55 47 213 1 87 131 51 164 9 141 157 194 239 213 226 110 24 156 247 196 91 50 215 20 235 253 245 74 101 6 116 156 54 73 157 141 204 208 49 213 94 
207 151 77 164 121 187 188 21 179 128 112 229 87 133 209 85 122 27 186 128 143 86 182 216 244 68 165 196 117 122 34 68 18 111 232 139 43 165 161 222 37 17 195 125 150 148 210 16 176 140 145 63 226 71 24 214 139 189 155 1 55 189 69 73 45 46 213 88 211 118 54 248 135 249 117 30 142 71 46 62 211 191 125 182 7 149 140 146 82 39 147 138 229 217 211 18 7 168 106 218 
30 160 210 166 153 72 196 39 143 242 101 99 178 227 25 185 120 165 75 203 205 223 85 178 184 40 196 191 209 46 153 239 206 107 149 103 179 89 143 67 76 244 166 254 215 191 183 80 100 2 27 49 225 112 227 153 152 167 88 105 213 241 89 163 93 238 11 16 72 154 83 148 142 249 146 102 184 73 182 29 75 209 78 45 65 50 198 217 217 31 67 175 16 156 82 109 138 93 126 210 
247 209 102 134 203 248 236 131 65 162 160 141 115 239 186 180 33 128 141 250 159 208 169 176 108 252 29 247 89 155 201 81 109 48 215 56 40 195 187 106 101 92 247 216 75 177 140 108 49 25 102 209 234 16 129 86 12 158 77 101 58 23 182 167 71 141 223 111 80 154 217 181 246 208 141 65 129 25 173 179 51 20 132 29 36 5 115 48 163 193 149 221 216 76 132 31 217 99 142 42 
254 104 223 244 56 109 54 186 134 227 109 185 247 241 214 27 246 74 75 153 11 225 119 227 45 251 2 6 95 144 48 93 248 16 81 49 125 135 235 3 107 88 189 98 73 147 126 63 221 201 216 232 170 79 203 215 75 205 222 170 94 14 7 86 30 88 135 155 224 114 159 75 202 92 173 19 239 43 82 205 245 43 181 159 122 129 119 197 78 85 111 172 99 118 3 130 207 138 29 175 
253 188 250 199 24 167 219 8 211 45 213 200 88 138 103 211 11 222 152 90 51 8 6 151 126 9 25 77 148 54 252 145 243 246 88 11 158 51 19 113 97 232 57 185 115 160 140 126 127 37 216 178 45 223 73 171 232 98 249 124 153 245 13 140 236 102 151 138 153 171 251 250 147 52 180 6 212 64 133 83 101 93 6 146 60 79 62 37 178 55 161 75 44 175 215 24 21 110 162 174 
25 157 169 173 209 93 179 166 157 56 249 3 150 255 149 210 79 211 247 1 10 153 76 55 72 35 79 93 145 242 11 171 143 180 88 97 17 11 7 175 68 0 178 218 0 71 172 79 27 164 80 37 61 156 92 133 191 172 226 80 158 237 251 45 162 83 142 179 95 149 98 163 150 20 125 150 92 41 229 119 205 53 156 10 209 249 143 144 165 113 224 67 95 220 112 1 47 255 180 142 
148 23 49 42 43 174 192 135 216 165 254 165 218 155 176 171 148 63 59 57 177 28 124 16 248 236 17 39 235 197 182 128 220 231 170 8 150 107 143 110 16 142 19 235 41 195 150 189 3 210 246 180 238 114 196 230 94 213 13 74 154 195 202 119 171 116 127 65 223 14 175 240 156 194 219 197 134 113 130 137 67 120 61 49 234 1 23 73 214 37 147 112 232 93 231 147 209 102 212 177 
117 131 161 17 70 124 215 204 237 89 85 49 210 146 98 188 147 122 5 105 159 152 217 135 245 193 27 199 39 239 120 156 115 25 174 185 149 133 133 130 222 218 179 176 108 22 109 255 144 114 104 47 11 65 182 0 2 209 199 42 193 63 198 52 88 116 237 237 249 114 112 216 76 35 136 184 57 245 183 201 104 31 248 115 96 175 115 99 128 59 141 65 122 83 117 211 200 98 192 193 
212 48 153 32 84 34 216 141 23 143 87 127 174 79 242 15 254 102 114 127 161 255 192 27 82 54 238 26 152 175 220 109 223 117 141 51 151 102 193 175 245 24 46 164 103 33 179 102 135 37 229 40 36 165 67 118 219 50 145 116 225 109 225 192 226 110 244 122 212 181 41 202 205 87 110 52 120 33 154 255 70 127 39 106 37 107 224 0 157 113 116 126 222 85 62 193 196 50 59 152 
231 100 98 180 187 208 233 52 241 131 51 55 3 91 161 40 198 130 40 99 243 157 225 210 242 31 147 182 82 206 79 57 50 177 238 237 130 215 33 115 90 85 171 93 176 76 133 118 206 174 217 194 75 186 148 61 217 39 244 43 245 67 101 39 244 83 20 118 42 54 234 132 139 149 226 59 225 103 177 176 21 138 114 96 68 6 158 29 45 146 73 34 213 174 73 201 1 93 64 43 
147 42 175 30 191 145 89 160 249 10 80 14 148 194 111 216 200 13 246 245 159 63 23 116 237 96 61 238 190 125 25 81 167 200 112 102 90 201 7 83 212 87 97 104 26 208 65 226 221 55 216 124 118 239 240 99 80 46 81 14 171 106 95 83 50 207 185 140 153 192 223 109 24 65 213 50 17 22 20 239 77 236 107 195 220 92 38 44 138 119 58 53 225 153 136 20 105 66 160 2 
2 128 111 26 193 68 76 210 91 97 193 168 77 45 108 41 137 146 85 19 10 143 72 235 41 209 255 146 19 160 148 21 32 3 48 225 71 124 179 162 221 117 75 43 162 183 84 43 73 170 62 83 57 134 63 98 87 62 244 106 222 136 128 254 139 176 223 211 44 147 117 10 8 192 53 170 119 137 213 193 51 19 20 109 153 83 207 241 146 196 91 112 76 219 111 216 139 78 171 184 
225 32 194 233 225 247 147 88 128 104 25 180 123 46 33 21 129 240 6 19 180 97 132 1 61 243 217 200 65 132 128 35 164 66 12 133 57 160 222 186 8 247 110 132 37 143 153 167 127 159 186 52 0 62 53 61 49 14 6 115 146 134 150 54 201 162 188 2 66 154 188 75 145 42 207 183 185 104 94 57 7 24 109 7 87 162 69 136 176 75 251 66 209 145 120 154 52 52 157 118 
206 89 193 96 132 144 23 61 248 117 118 255 141 227 7 228 133 76 109 53 151 104 119 104 250 240 3 46 36 160 164 243 249 102 83 125 246 106 187 239 223 49 238 108 21 245 81 154 65 190 208 216 38 71 65 32 55 68 78 92 228 243 79 221 89 162 91 79 12 22 62 235 71 45 87 92 34 168 247 100 102 199 60 141 14 125 173 70 193 252 162 165 239 241 131 72 147 222 151 159 
244 214 138 59 3 225 152 37 138 143 137 240 86 198 125 100 67 43 170 5 39 76 170 22 61 45 94 208 11 245 111 255 203 249 59 206 219 211 244 101 98 125 85 184 67 211 28 135 254 199 140 37 19 54 59 81 100 153 33 111 142 145 111 90 138 170 40 101 125 28 202 223 154 32 151 221 243 179 100 241 122 240 22 142 39 81 223 139 234 0 250 120 145 105 210 28 19 251 129 144 
23 76 111 177 108 6 143 95 186 243 80 52 228 102 194 11 183 161 150 161 162 144 25 51 250 236 79 13 231 209 158 254 29 13 176 137 20 63 232 206 50 56 2 22 158 197 33 85 102 183 246 8 72 15 60 66 251 139 79 226 92 237 225 121 251 145 2 15 208 234 221 2 34 223 25 192 164 58 21 11 242 11 19 58 27 79 124 22 219 203 249 55 185 218 177 180 107 179 195 59 
158 160 61 192 127 86 129 36 145 150 47 131 162 66 189 189 146 57 211 109 4 204 164 189 166 85 113 17 9 52 76 167 212 138 103 84 224 232 120 113 127 167 244 33 233 177 222 123 234 177 232 239 126 141 172 36 226 30 54 235 82 130 146 39 12 250 123 237 226 243 94 97 154 83 130 131 4 96 255 239 18 231 222 144 116 138 180 87 168 234 66 251 109 213 34 121 207 157 102 177 
144 197 19 42 24 149 173 28 246 172 11 8 148 233 152 8 116 76 95 28 55 162 23 164 119 57 29 70 214 132 247 102 73 10 144 97 160 62 125 150 234 137 158 126 114 54 135 230 130 230 3 185 136 26 93 255 84 123 69 42 255 61 145 72 71 33 169 231 95 38 125 74 175 27 200 34 81 79 8 212 54 11 141 190 38 235 190 122 102 3 164 101 64 53 173 136 87 86 111 182 
124 237 0 44 8 201 78 90 24 86 46 78 98 187 13 136 166 203 2 12 206 166 113 15 220 30 151 51 116 6 233 241 243 234 29 252 179 107 86 203 193 132 26 35 63 39 171 230 242 173 242 192 84 100 207 48 130 102 99 247 109 76 232 96 54 5 92 233 112 178 181 49 54 207 85 118 246 0 92 232 174 78 168 2 178 120 50 53 222 149 44 75 225 20 172 24 25 8 1 137 
187 182 186 241 133 15 103 123 16 195 99 190 18 12 192 196 132 242 249 98 135 37 174 104 57 90 128 82 98 130 219 29 56 150 15 190 165 118 57 181 58 157 115 76 169 51 16 45 37 10 143 172 47 61 21 105 151 149 187 250 23 151 23 80 45 38 14 210 157 71 136 215 228 251 35 141 47 51 186 84 61 74 1 109 135 22 214 31 171 145 25 195 40 48 19 85 87 33 40 244 
104 176 203 77 171 238 218 218 33 149 47 95 223 48 204 102 70 162 133 241 51 158 180 92 207 199 177 38 232 217 26 81 137 229 158 53 211 120 15 244 13 62 83 236 110 31 83 180 193 216 166 245 119 90 81 70 34 2 108 10 220 134 91 101 107 249 154 62 114 170 50 127 232 134 108 87 165 191 11 103 151 177 92 14 12 173 84 46 175 192 56 139 70 148 241 177 141 139 239 255 
53 34 127 30 168 235 117 77 170 128 180 65 50 16 80 62 189 164 108 109 101 164 248 171 56 233 93 198 117 76 197 170 110 68 200 22 47 61 100 217 190 24 27 240 41 107 46 230 15 154 83 116 62 76 32 119 53 125 61 170 201 2 85 56 71 29 78 118 91 178 80 25 203 107 9 244 214 55 218 229 209 46 90 15 122 122 134 175 247 195 90 192 198 175 248 13 204 71 131 39 
249 211 64 196 62 73 184 20 128 147 250 81 193 84 97 59 206 231 234 197 171 68 133 113 243 126 126 192 197 1 231 190 213 40 131 19 113 59 40 242 206 34 67 143 118 164 202 68 140 181 9 55 249 142 168 237 12 38 173 209 39 148 144 252 188 19 16 46 78 56 32 29 90 99 172 208 8 119 20 148 44 29 203 37 171 115 18 184 153 191 137 192 84 25 189 16 44 205 62 123 
5 94 152 95 194 68 47 202 187 67 94 231 96 41 13 11 156 31 195 53 223 77 245 51 102 178 67 147 127 130 14 132 224 166 227 162 234 18 108 166 85 202 141 181 243 154 193 143 186 132 196 153 209 186 204 56 108 15 203 236 145 217 112 114 127 84 20 105 102 129 15 188 75 157 113 63 55 50 206 241 183 147 138 136 77 86 192 185 102 139 165 247 100 22 105 227 106 126 77 208 
255 92 140 74 249 254 137 49 48 88 34 231 235 173 112 56 3 48 241 105 188 151 97 32 173 202 4 23 72 81 231 71 173 116 146 167 114 27 216 162 115 250 138 94 167 250 150 171 42 136 20 230 31 117 7 204 64 11 227 136 92 202 208 9 62 98 176 176 125 136 83 241 131 221 79 42 215 230 213 1 110 234 232 141 95 239 89 159 250 60 40 86 6 248 95 69 90 16 245 215 
152 72 200 27 37 24 70 252 254 27 254 108 5 230 249 101 213 82 4 207 142 44 37 148 36 132 217 126 148 207 86 45 23 30 72 61 54 142 57 52 170 55 160 175 29 153 20 242 235 25 193 121 69 230 14 106 107 231 232 255 182 62 44 206 93 117 11 147 3 68 200 173 124 104 93 153 2 113 140 237 138 77 103 208 52 117 58 159 92 34 158 19 97 203 225 190 64 236 81 67 
48 25 241 172 130 78 70 132 191 210 113 74 31 216 26 83 77 84 242 170 118 145 189 215 92 158 149 156 138 231 223 186 0 208 103 130 30 173 6 222 127 120 40 158 80 66 242 158 150 228 72 12 117 5 228 209 163 121 109 45 96 77 231 97 29 78 227 60 251 234 26 122 98 66 25 178 132 11 80 26 239 152 38 101 157 10 54 64 132 164 109 228 241 85 69 14 163 41 74 159 
19 100 25 117 166 50 39 42 61 120 68 45 16 107 146 174 117 200 238 249 108 92 222 93 177 35 108 84 76 182 243 95 27 13 212 193 63 252 236 125 116 48 170 132 155 60 50 17 4 33 10 113 125 232 206 46 12 58 130 88 241 118 184 12 131 140 205 194 136 185 63 252 234 233 129 133 37 179 150 42 212 161 155 81 137 105 127 149 164 2 238 149 120 166 161 251 50 110 189 187 
40 253 183 18 230 56 151 12 236 46 54 192 207 209 18 88 58 145 238 222 147 220 115 11 130 20 6 180 131 196 111 171 193 39 189 167 95 84 179 75 130 233 12 81 186 30 170 245 175 152 211 67 116 71 78 246 91 85 170 222 25 26 137 218 65 70 129 160 155 53 236 29 30 248 111 217 22 25 206 197 177 161 8 37 232 87 27 68 172 197 34 197 223 172 159 32 242 32 193 141 
